<svg width="1417" height="308" viewBox="0 0 1417 308" fill="none" xmlns="http://www.w3.org/2000/svg">
<path d="M29.0002 277.5C17.0002 305.5 63.0282 213.946 99.5002 189C193.732 124.548 260.928 290.865 366.585 305.5H396C537.725 285.872 552.663 -6.97355 678 62.0305C727.477 89.2698 715.914 156.184 769.5 174.031C859.102 203.872 835.563 -0.27766 930 0.500019C1046.94 1.463 954.405 240.347 1068.5 266C1146.09 283.446 1182.98 188.381 1261.5 201C1333.1 212.507 1415 305.5 1415 305.5H396C385.854 306.905 376.065 306.813 366.585 305.5H2L29.0002 277.5Z" fill="#E8DFEC" stroke="#E8DFEC"/>
</svg>
