<svg width="1327" height="573" viewBox="0 0 1327 573" fill="none" xmlns="http://www.w3.org/2000/svg">
<path d="M650.02 375.164C803.02 375.164 673.254 523.646 718.019 552.164C824.5 620 868.02 474.164 939.02 474.164C1010.02 474.164 1104.01 582.686 1173.52 571.164C1296.09 550.846 1347.52 375.164 1318.02 264.664C1298.66 192.164 1111.48 2.15854 908.019 0.664161C776.131 -0.30452 721.368 97.0531 591.019 117.164C443.187 139.973 350.326 40.1061 209.019 89.1642C116.21 121.385 3.12908 132.444 1.01879 230.664C-1.28054 337.683 157.852 382.331 241.519 362.164C325.185 341.997 376.019 260.664 427.52 292.664C479.02 324.664 497.02 375.164 650.02 375.164Z" fill="#9B75B0" fill-opacity="0.23" stroke="#E8DFEC"/>
</svg>
